<svg aria-hidden="true" style="width:0;height:0;position:absolute;overflow:hidden" xmlns="http://www.w3.org/2000/svg"><defs><symbol id="icon-youtube" viewBox="0 0 32 32"><path fill="#2f7a91" style="fill:#2f7a91" d="M31.681 9.6s-.313-2.206-1.275-3.175C29.187 5.15 27.825 5.144 27.2 5.069c-4.475-.325-11.194-.325-11.194-.325h-.012s-6.719 0-11.194.325c-.625.075-1.987.081-3.206 1.356C.631 7.394.325 9.6.325 9.6s-.319 2.588-.319 5.181v2.425c0 2.587.319 5.181.319 5.181s.313 2.206 1.269 3.175c1.219 1.275 2.819 1.231 3.531 1.369 2.563.244 10.881.319 10.881.319s6.725-.012 11.2-.331c.625-.075 1.988-.081 3.206-1.356.962-.969 1.275-3.175 1.275-3.175s.319-2.587.319-5.181v-2.425c-.006-2.588-.325-5.181-.325-5.181zM12.694 20.15v-8.994l8.644 4.513-8.644 4.481z"/></symbol><symbol id="icon-facebook" viewBox="0 0 32 32"><path fill="#2f7a91" style="fill:#2f7a91" d="M19 6h5V0h-5c-3.86 0-7 3.14-7 7v3H8v6h4v16h6V16h5l1-6h-6V7c0-.542.458-1 1-1z"/></symbol><symbol id="icon-twitter" viewBox="0 0 32 32"><path fill="#2f7a91" style="fill:#2f7a91" d="M32 7.075a12.941 12.941 0 0 1-3.769 1.031 6.601 6.601 0 0 0 2.887-3.631 13.21 13.21 0 0 1-4.169 1.594A6.565 6.565 0 0 0 22.155 4a6.563 6.563 0 0 0-6.563 6.563c0 .512.056 1.012.169 1.494A18.635 18.635 0 0 1 2.23 5.195a6.56 6.56 0 0 0-.887 3.3 6.557 6.557 0 0 0 2.919 5.463 6.565 6.565 0 0 1-2.975-.819v.081a6.565 6.565 0 0 0 5.269 6.437 6.574 6.574 0 0 1-2.968.112 6.588 6.588 0 0 0 6.131 4.563 13.17 13.17 0 0 1-9.725 2.719 18.568 18.568 0 0 0 10.069 2.95c12.075 0 18.681-10.006 18.681-18.681 0-.287-.006-.569-.019-.85A13.216 13.216 0 0 0 32 7.076z"/></symbol><symbol id="icon-instagram" viewBox="0 0 32 32"><path fill="#2f7a91" style="fill:#2f7a91" d="M16 2.881c4.275 0 4.781.019 6.462.094 1.563.069 2.406.331 2.969.55a4.952 4.952 0 0 1 1.837 1.194 5.015 5.015 0 0 1 1.2 1.838c.219.563.481 1.412.55 2.969.075 1.688.094 2.194.094 6.463s-.019 4.781-.094 6.463c-.069 1.563-.331 2.406-.55 2.969a4.94 4.94 0 0 1-1.194 1.837 5.02 5.02 0 0 1-1.837 1.2c-.563.219-1.413.481-2.969.55-1.688.075-2.194.094-6.463.094s-4.781-.019-6.463-.094c-1.563-.069-2.406-.331-2.969-.55a4.952 4.952 0 0 1-1.838-1.194 5.02 5.02 0 0 1-1.2-1.837c-.219-.563-.481-1.413-.55-2.969-.075-1.688-.094-2.194-.094-6.463s.019-4.781.094-6.463c.069-1.563.331-2.406.55-2.969a4.964 4.964 0 0 1 1.194-1.838 5.015 5.015 0 0 1 1.838-1.2c.563-.219 1.412-.481 2.969-.55 1.681-.075 2.188-.094 6.463-.094zM16 0c-4.344 0-4.887.019-6.594.094-1.7.075-2.869.35-3.881.744-1.056.412-1.95.956-2.837 1.85a7.833 7.833 0 0 0-1.85 2.831C.444 6.538.169 7.7.094 9.4.019 11.113 0 11.656 0 16s.019 4.887.094 6.594c.075 1.7.35 2.869.744 3.881.413 1.056.956 1.95 1.85 2.837a7.82 7.82 0 0 0 2.831 1.844c1.019.394 2.181.669 3.881.744 1.706.075 2.25.094 6.594.094s4.888-.019 6.594-.094c1.7-.075 2.869-.35 3.881-.744 1.05-.406 1.944-.956 2.831-1.844s1.438-1.781 1.844-2.831c.394-1.019.669-2.181.744-3.881.075-1.706.094-2.25.094-6.594s-.019-4.887-.094-6.594c-.075-1.7-.35-2.869-.744-3.881a7.506 7.506 0 0 0-1.831-2.844A7.82 7.82 0 0 0 26.482.843C25.463.449 24.301.174 22.601.099c-1.712-.081-2.256-.1-6.6-.1z"/><path fill="#2f7a91" style="fill:#2f7a91" d="M16 7.781c-4.537 0-8.219 3.681-8.219 8.219s3.681 8.219 8.219 8.219 8.219-3.681 8.219-8.219A8.221 8.221 0 0 0 16 7.781zm0 13.55a5.331 5.331 0 1 1 0-10.663 5.331 5.331 0 0 1 0 10.663zM26.462 7.456a1.919 1.919 0 1 1-3.838 0 1.919 1.919 0 0 1 3.838 0z"/></symbol><symbol id="icon-itunes" viewBox="0 0 32 32"><path fill="#2f7a91" style="fill:#2f7a91" d="M15.972 32A15.774 15.774 0 0 1 6.7 28.984 15.91 15.91 0 0 1 .281 18.575 15.942 15.942 0 0 1 3.069 6.659 15.802 15.802 0 0 1 13.442.212a15.778 15.778 0 0 1 11.861 2.805 15.915 15.915 0 0 1 6.42 10.409 15.946 15.946 0 0 1-2.788 11.917 15.812 15.812 0 0 1-10.373 6.447c-.865.14-1.732.209-2.591.209zM7.34 28.099a14.69 14.69 0 0 0 11.045 2.613 14.726 14.726 0 0 0 9.661-6.005c4.777-6.672 3.26-16.005-3.384-20.805a14.69 14.69 0 0 0-11.045-2.613 14.73 14.73 0 0 0-9.66 6.005C-.822 13.966.697 23.299 7.34 28.099zm14.141-4.736c.975-.285 1.661-.979 1.944-1.957l.083-.288.011-7.716c.008-5.779 0-7.752-.032-7.86a.71.71 0 0 0-.157-.285.687.687 0 0 0-.368-.097c-.097 0-.433.047-.747.104-1.388.253-9.568 1.881-9.708 1.933a1.046 1.046 0 0 0-.532.472l-.087.171s-.041 12.095-.104 12.231c-.095.207-.307.404-.501.467-.092.029-.457.112-.812.183-1.641.327-2.251.561-2.767 1.068-.293.288-.509.68-.604 1.092-.089.393-.06.983.068 1.341.133.375.349.695.631.947.256.197.559.344.899.432.751.192 2.157-.021 2.877-.437.301-.175.688-.539.889-.839.08-.119.2-.357.267-.532.235-.608.241-11.443.272-11.579a.59.59 0 0 1 .427-.459c.196-.052 8.073-1.609 8.296-1.64.195-.027.379.036.48.16.06.032.111.075.145.128.064.095.068.284.077 3.713.011 3.948.016 3.856-.199 4.105-.156.181-.351.252-1.152.415-1.219.249-1.635.367-2.101.595-.583.284-.905.596-1.156 1.115-.177.367-.243.641-.243 1.005.001.652.225 1.161.733 1.66.047.045.092.088.139.129.256.197.516.317.844.392.493.109 1.499.033 2.188-.168z"/></symbol><symbol id="icon-dots-horizontal-triple" viewBox="0 0 20 20"><path fill="#2f7a91" style="fill:#2f7a91" d="M10 12a2 2 0 1 1 0-4 2 2 0 1 1 0 4zm0-6a2 2 0 1 1 0-4 2 2 0 1 1 0 4zm0 12a2 2 0 1 1 0-4 2 2 0 1 1 0 4z"/></symbol><symbol id="icon-message-typing" viewBox="0 0 24 24"><path fill="#2f7a91" style="fill:#2f7a91" d="M18 6H5C3.35 6 2 7.35 2 9v7c0 1.65 1.35 3 3 3h1v3l3-3h9c1.65 0 3-1.35 3-3V9c0-1.65-1.35-3-3-3zm1 10c0 .542-.458 1-1 1H5c-.542 0-1-.458-1-1V9c0-.542.458-1 1-1h13c.542 0 1 .458 1 1v7z"/><path fill="#2f7a91" style="fill:#2f7a91" d="M7 14.5a2 2 0 1 1 .001-4.001A2 2 0 0 1 7 14.5zm0-3a1 1 0 1 0 0 2 1 1 0 0 0 0-2zM11.5 14.5a2 2 0 1 1 .001-4.001A2 2 0 0 1 11.5 14.5zm0-3a1 1 0 1 0 0 2 1 1 0 0 0 0-2zM16 14.5a2 2 0 1 1 .001-4.001A2 2 0 0 1 16 14.5zm0-3a1 1 0 1 0 0 2 1 1 0 0 0 0-2z"/></symbol><symbol id="icon-brightness-contrast" viewBox="0 0 32 32"><path fill="#2f7a91" style="fill:#2f7a91" d="M16 8a8 8 0 1 0 0 16 8 8 0 0 0 0-16zm0 13V11c2.757 0 5 2.243 5 5s-2.243 5-5 5zm0 5a2 2 0 0 1 2 2v2a2 2 0 1 1-4 0v-2a2 2 0 0 1 2-2zm0-20a2 2 0 0 1-2-2V2a2 2 0 1 1 4 0v2a2 2 0 0 1-2 2zm14 8a2 2 0 1 1 0 4h-2a2 2 0 1 1 0-4h2zM6 16a2 2 0 0 1-2 2H2a2 2 0 1 1 0-4h2a2 2 0 0 1 2 2zm19.899 7.071 1.414 1.414a2 2 0 1 1-2.828 2.828l-1.414-1.414a2 2 0 1 1 2.828-2.828zM6.101 8.929 4.687 7.515a2 2 0 1 1 2.828-2.828l1.414 1.414a2 2 0 1 1-2.828 2.828zm19.798 0a2 2 0 1 1-2.828-2.828l1.414-1.414a2 2 0 1 1 2.828 2.828l-1.414 1.414zM6.101 23.071a2 2 0 1 1 2.828 2.828l-1.414 1.414a2 2 0 1 1-2.828-2.828l1.414-1.414z"/></symbol><symbol id="icon-search" viewBox="0 0 32 32"><path fill="#2f7a91" style="fill:#2f7a91" d="m31.008 27.231-7.58-6.447c-.784-.705-1.622-1.029-2.299-.998a11.954 11.954 0 0 0 2.87-7.787c0-6.627-5.373-12-12-12s-12 5.373-12 12 5.373 12 12 12c2.972 0 5.691-1.081 7.787-2.87-.031.677.293 1.515.998 2.299l6.447 7.58c1.104 1.226 2.907 1.33 4.007.23s.997-2.903-.23-4.007zM12 20a8 8 0 1 1 0-16 8 8 0 0 1 0 16z"/></symbol><symbol id="icon-keyboard_arrow_down" viewBox="0 0 25 24"><path fill="#2f7a91" style="fill:#2f7a91" d="m9.694 9.939 2.556 2.556 2.556-2.556.783.783-3.339 3.339-3.339-3.339z"/></symbol></defs></svg>